<svg xmlns="http://www.w3.org/2000/svg" width="512" height="512" style="shape-rendering:geometricPrecision;text-rendering:geometricPrecision;image-rendering:optimizeQuality;fill-rule:evenodd;clip-rule:evenodd"><path fill="#f44336" d="M64.5 63.5a21428.134 21428.134 0 0 0 191 151 21428.134 21428.134 0 0 0 191-151c23.541-4.343 42.707 2.657 57.5 21 3.106 5.532 5.606 11.199 7.5 17v308c-5.485 19.651-18.152 32.151-38 37.5-8.66.5-17.327.666-26 .5.167-99.667 0-199.334-.5-299a13366.093 13366.093 0 0 1-192.5 147A43726.01 43726.01 0 0 0 64 148.5c-.5 99.666-.667 199.333-.5 299-23.201 4.178-42.035-2.822-56.5-21-3.106-5.532-5.606-11.199-7.5-17v-308c5.485-19.651 18.152-32.151 38-37.5 8.994-.5 17.994-.666 27-.5Z" style="opacity:.998"/><path fill="#eceef0" d="M64.5 63.5h382a21428.134 21428.134 0 0 1-191 151 21428.134 21428.134 0 0 1-191-151ZM254.5 295.5a20949.323 20949.323 0 0 1 192 152h-383c-.167-99.667 0-199.334.5-299a43726.01 43726.01 0 0 1 190.5 147Z" style="opacity:1"/><path fill="#cfd7db" d="M447.5 447.5h-1a20949.323 20949.323 0 0 0-192-152 13366.093 13366.093 0 0 0 192.5-147c.5 99.666.667 199.333.5 299Z" style="opacity:1"/></svg>