<svg xmlns="http://www.w3.org/2000/svg" xml:space="preserve" fill-rule="evenodd" stroke-linejoin="round" stroke-width="28.222" baseProfile="tiny" clip-path="url(#a)" version="1.2" viewBox="0 0 15375 17876"><defs class="ClipPathGroup"><clipPath id="a" clipPathUnits="userSpaceOnUse"><path d="M0 0h15375v17876H0z"/></clipPath></defs><g class="SlideGroup"><g class="Slide" clip-path="url(#a)"><g class="Page"><path d="M1-1v1H0l1-1Z" class="com.sun.star.drawing.PolyPolygonShape"/><path d="M0-1h1v1H0v-1Z" class="com.sun.star.drawing.PolyPolygonShape"/><path d="m0 1 1-1-1-1 2 1-2 1Zm1-1L0-1l1 1Z" class="com.sun.star.drawing.PolyPolygonShape"/><path d="M2 0 1 1V0H0h1v-1l1 1Z" class="com.sun.star.drawing.PolyPolygonShape"/><path d="M0 0v-1h1v1H0Z" class="com.sun.star.drawing.ClosedBezierShape"/><path d="M0 0v-1 1l1-1h1-1L0 0Z" class="com.sun.star.drawing.ClosedBezierShape"/><path d="M1 0H0v-1h1v1Z" class="com.sun.star.drawing.ClosedBezierShape"/><path d="M0-1ZM0 0h1-1Z" class="com.sun.star.drawing.PolyPolygonShape"/><path fill="#FFF" d="M1437 16440V1439h8334l4167 4167v10834H1437Z" class="com.sun.star.drawing.PolyPolygonShape"/><path fill="none" stroke="#000" stroke-width="375" d="M1437 16440V1439h8334l4167 4167v10834H1437Z" class="com.sun.star.drawing.PolyPolygonShape"/><path fill="#B2B2B2" d="m9770 1437 4168 4168H9770V1437Zm0 0Zm4168 4168Z" class="com.sun.star.drawing.PolyPolygonShape"/><path fill="none" stroke="#000" stroke-width="375" d="m9770 1437 4168 4168H9770V1437Z" class="com.sun.star.drawing.PolyPolygonShape"/><g class="com.sun.star.drawing.CustomShape"><path fill="#FFF" d="M7583 12000c-292 0-583 291-583 583v2334c0 292 291 584 583 584h6834c292 0 584-292 584-584v-2334c0-292-292-583-584-583H7583Zm-583 0Zm8001 3501Z"/><path fill="none" stroke="#333" stroke-width="200" d="M7583 12000c-292 0-583 291-583 583v2334c0 292 291 584 583 584h6834c292 0 584-292 584-584v-2334c0-292-292-583-584-583H7583Z"/></g><g class="com.sun.star.drawing.CustomShape"><path fill="#B2B2B2" d="M7600 14303h594v696h-594v-696Zm825-1803h1881v617h-631v1882h-619v-1882h-631v-617Zm2022 1h681l356 769 343-769h674l-622 1210 681 1288h-695l-394-803-396 803h-691l691-1303-628-1195Zm2172-1h1880v617h-630v1882h-620v-1882h-630v-617Z"/><path fill="none" stroke="#000" stroke-linejoin="miter" stroke-width="26" d="M7600 14303h594v696h-594v-696ZM8425 12500h1881v617h-631v1882h-619v-1882h-631v-617ZM10447 12501h681l356 769 343-769h674l-622 1210 681 1288h-695l-394-803-396 803h-691l691-1303-628-1195ZM12619 12500h1880v617h-630v1882h-620v-1882h-630v-617Z"/></g></g></g></g></svg>